<svg width="261" height="84" viewBox="0 0 261 84" fill="none" xmlns="http://www.w3.org/2000/svg">
<g clip-path="url(#clip0_2_18)">
<path d="M61.6324 56.9852V3.52633C61.6324 1.78174 60.2357 0.371216 58.5082 0.371216H22.1859C20.4584 0.371216 19.0616 1.78174 19.0616 3.52633V56.9852" stroke="#1A3B6C" stroke-miterlimit="10"/>
<path d="M19.0469 6.66656H3.49181C1.76428 6.66656 0.367554 8.07709 0.367554 9.82168V57" stroke="#CD545B" stroke-miterlimit="10"/>
<path d="M13.8644 14.0013H8.67444V22.3902H13.8644V14.0013Z" fill="#CD545B"/>
<path d="M13.8644 28.1585H8.67444V36.5474H13.8644V28.1585Z" fill="#CD545B"/>
<path d="M13.8644 42.3157H8.67444V50.7046H13.8644V42.3157Z" fill="#CD545B"/>
<path d="M35.5945 9.28717H29.4415V19.2351H35.5945V9.28717Z" fill="#029DBD"/>
<path d="M35.5945 26.0724H29.4415V36.0203H35.5945V26.0724Z" fill="#029DBD"/>
<path d="M35.5945 42.8577H29.4415V52.8056H35.5945V42.8577Z" fill="#029DBD"/>
<path d="M51.6863 9.28717H45.5333V19.2351H51.6863V9.28717Z" fill="#029DBD"/>
<path d="M51.6863 26.0724H45.5333V36.0203H51.6863V26.0724Z" fill="#029DBD"/>
<path d="M51.6863 42.8577H45.5333V52.8056H51.6863V42.8577Z" fill="#029DBD"/>
</g>
<path d="M75.1421 54.9785V27.5786C75.1421 27.0073 75.3472 26.5166 75.7573 26.1064C76.1675 25.6963 76.6582 25.4912 77.2295 25.4912H81.3164C81.917 25.4912 82.415 25.6963 82.8105 26.1064C83.2207 26.5166 83.4258 27.0073 83.4258 27.5786V54.9346C83.4258 55.5059 83.2134 55.9966 82.7886 56.4067C82.3784 56.8022 81.8877 57 81.3164 57H77.2295C76.6582 57 76.1675 56.8096 75.7573 56.4287C75.3472 56.0332 75.1421 55.5498 75.1421 54.9785ZM87.9302 48.936C87.9302 48.0718 88.1865 47.4565 88.6992 47.0903C89.2119 46.7095 89.71 46.519 90.1934 46.519H92.8081C94.1265 46.519 95.1299 47.2368 95.8184 48.6724C96.5068 50.1079 98.0522 50.8257 100.455 50.8257L108.145 50.9795C110.723 50.9795 112.012 50.1372 112.012 48.4526C112.012 47.1782 110.438 46.1748 107.288 45.4424C105.882 45.1055 104.329 44.7759 102.63 44.4536C100.931 44.1167 99.2388 43.6992 97.5542 43.2012C95.8843 42.7031 94.3462 42.1172 92.9399 41.4434C91.5337 40.7695 90.3911 39.8467 89.5122 38.6748C88.6479 37.4883 88.2158 36.0967 88.2158 34.5C88.2158 31.5557 89.2632 29.2925 91.3579 27.7104C93.4526 26.1138 97.0562 25.3154 102.168 25.3154L107.75 25.4473C110.752 25.4473 113.455 26.2236 115.857 27.7764C118.274 29.3145 119.483 31.2407 119.483 33.5552C119.483 34.4194 119.227 35.042 118.714 35.4229C118.201 35.8037 117.71 35.9941 117.242 35.9941H114.627C113.309 35.9941 112.305 35.2764 111.617 33.8408C110.928 32.3906 109.383 31.6655 106.98 31.6655L100.367 31.5337C97.7886 31.5337 96.4995 32.376 96.4995 34.0605C96.4995 34.9834 97.3125 35.7378 98.9385 36.3237C100.579 36.9097 102.557 37.4297 104.871 37.8838C107.2 38.3232 109.537 38.8579 111.88 39.4878C114.224 40.1177 116.209 41.1577 117.835 42.6079C119.476 44.0435 120.296 45.8379 120.296 47.9912C120.296 50.9355 119.241 53.2061 117.132 54.8027C115.037 56.3848 111.441 57.1758 106.343 57.1758L99.6855 57.0439C96.6826 57.0439 93.9727 56.2749 91.5557 54.7368C89.1387 53.1841 87.9302 51.2505 87.9302 48.936ZM122.208 54.9785L127.723 34.0605C129.217 28.3623 134.08 25.5059 142.312 25.4912H154.156C154.698 25.4912 155.145 25.6963 155.496 26.1064C155.862 26.5166 156.045 26.9927 156.045 27.5347V54.9785C156.045 55.5498 155.84 56.0332 155.43 56.4287C155.02 56.8096 154.529 57 153.958 57H149.827C149.227 57 148.729 56.8096 148.333 56.4287C147.952 56.0332 147.762 55.5352 147.762 54.9346V49.3975H132.139L130.667 54.9346C130.521 55.5352 130.191 56.0332 129.678 56.4287C129.166 56.8096 128.624 57 128.052 57H123.724C123.152 57 122.742 56.8389 122.493 56.5166C122.244 56.1797 122.12 55.8867 122.12 55.6377C122.134 55.3887 122.164 55.1689 122.208 54.9785ZM133.765 43.1792H147.762V31.7095H141.5C140.093 31.7095 138.863 32.1123 137.808 32.918C136.768 33.709 136.065 34.7783 135.699 36.126L133.765 43.1792ZM162.33 54.9785V27.6226C162.33 27.022 162.535 26.5166 162.945 26.1064C163.355 25.6963 163.846 25.4912 164.417 25.4912H168.548C169.119 25.4912 169.603 25.6963 169.998 26.1064C170.408 26.5166 170.613 27.022 170.613 27.6226V50.7817H189.751C190.323 50.7817 190.806 50.9868 191.202 51.397C191.612 51.8071 191.817 52.2979 191.817 52.8691V54.9346C191.817 55.5059 191.612 55.9966 191.202 56.4067C190.806 56.8022 190.323 57 189.751 57H164.417C163.846 57 163.355 56.8096 162.945 56.4287C162.535 56.0332 162.33 55.5498 162.33 54.9785ZM195.42 54.8906V27.5347C195.42 26.9634 195.625 26.48 196.036 26.0845C196.446 25.689 196.937 25.4912 197.508 25.4912H222.842C223.414 25.4912 223.897 25.6963 224.292 26.1064C224.703 26.5166 224.908 27.0073 224.908 27.5786V29.644C224.908 30.2153 224.703 30.7061 224.292 31.1162C223.897 31.5117 223.414 31.7095 222.842 31.7095H203.704V39.4438H219.283C219.854 39.4438 220.337 39.6489 220.733 40.0591C221.143 40.4692 221.348 40.9526 221.348 41.5093V43.5967C221.348 44.168 221.143 44.6587 220.733 45.0688C220.337 45.4644 219.854 45.6621 219.283 45.6621H203.704V54.8906C203.704 55.4912 203.499 55.9966 203.089 56.4067C202.693 56.8022 202.21 57 201.639 57H197.508C196.937 57 196.446 56.8022 196.036 56.4067C195.625 55.9966 195.42 55.4912 195.42 54.8906ZM228.511 54.8906V27.5347C228.511 26.9634 228.716 26.48 229.126 26.0845C229.537 25.689 230.027 25.4912 230.599 25.4912H255.933C256.504 25.4912 256.988 25.6963 257.383 26.1064C257.793 26.5166 257.999 27.0073 257.999 27.5786V29.644C257.999 30.2153 257.793 30.7061 257.383 31.1162C256.988 31.5117 256.504 31.7095 255.933 31.7095H236.795V38.1035H253.274C253.846 38.1035 254.329 38.3086 254.725 38.7188C255.135 39.1143 255.34 39.5977 255.34 40.1689V42.2344C255.34 42.8057 255.135 43.2964 254.725 43.7065C254.329 44.1021 253.846 44.2998 253.274 44.2998H236.795V50.7817H255.889C256.446 50.7817 256.922 50.9795 257.317 51.375C257.713 51.7705 257.911 52.2539 257.911 52.8252V54.9346C257.911 55.5059 257.706 55.9966 257.295 56.4067C256.885 56.8022 256.395 57 255.823 57H230.599C230.027 57 229.537 56.8022 229.126 56.4067C228.716 55.9966 228.511 55.4912 228.511 54.8906Z" fill="#1A3B6C"/>
<path d="M2.8 76.3H9.98L9.62 75.26H3.16L2.8 76.3ZM6.36 69L9.12 75.68L9.22 75.94L11.3 81H12.54L6.36 66.46L0.18 81H1.42L3.52 75.86L3.64 75.62L6.36 69ZM14.3948 67V81H15.4948V67H14.3948ZM18.1948 81C19.5548 81 20.7482 80.7067 21.7748 80.12C22.8148 79.5333 23.6215 78.72 24.1948 77.68C24.7815 76.6267 25.0748 75.4 25.0748 74C25.0748 72.6 24.7815 71.38 24.1948 70.34C23.6215 69.2867 22.8148 68.4667 21.7748 67.88C20.7482 67.2933 19.5548 67 18.1948 67H14.9948V68.1H18.1948C19.0615 68.1 19.8482 68.24 20.5548 68.52C21.2748 68.8 21.8882 69.2 22.3948 69.72C22.9015 70.2267 23.2882 70.8467 23.5548 71.58C23.8348 72.3 23.9748 73.1067 23.9748 74C23.9748 74.8933 23.8348 75.7067 23.5548 76.44C23.2882 77.16 22.9015 77.78 22.3948 78.3C21.8882 78.8067 21.2748 79.2 20.5548 79.48C19.8482 79.76 19.0615 79.9 18.1948 79.9H14.9948V81H18.1948ZM29.217 69.92L34.137 79.38L39.057 69.92L40.257 81H41.357L39.737 66.46L34.137 77.22L28.537 66.46L26.917 81H28.017L29.217 69.92ZM43.9642 67V81H45.0642V67H43.9642ZM59.0192 67V78.72L48.3792 66.46V81H49.4792V69.32L60.1192 81.54V67H59.0192ZM63.4369 67V81H64.5369V67H63.4369ZM67.9519 76.96L67.0519 77.52C67.2785 78.1733 67.5985 78.78 68.0119 79.34C68.4252 79.9 68.9385 80.3467 69.5519 80.68C70.1652 81.0133 70.8785 81.18 71.6919 81.18C72.2652 81.18 72.7985 81.0933 73.2919 80.92C73.7852 80.7333 74.2119 80.4733 74.5719 80.14C74.9452 79.7933 75.2319 79.3867 75.4319 78.92C75.6452 78.4533 75.7519 77.9333 75.7519 77.36C75.7519 76.7467 75.6452 76.22 75.4319 75.78C75.2185 75.3267 74.9385 74.94 74.5919 74.62C74.2585 74.3 73.8852 74.0333 73.4719 73.82C73.0585 73.6067 72.6585 73.4267 72.2719 73.28C71.5252 73.0133 70.8985 72.7333 70.3919 72.44C69.8852 72.1333 69.5052 71.7933 69.2519 71.42C68.9985 71.0467 68.8719 70.6 68.8719 70.08C68.8719 69.4533 69.0919 68.9333 69.5319 68.52C69.9719 68.0933 70.5985 67.88 71.4119 67.88C72.0252 67.88 72.5385 68 72.9519 68.24C73.3652 68.4667 73.7052 68.7533 73.9719 69.1C74.2519 69.4467 74.4652 69.8 74.6119 70.16L75.5719 69.62C75.3852 69.1667 75.1119 68.7267 74.7519 68.3C74.3919 67.8733 73.9385 67.52 73.3919 67.24C72.8585 66.96 72.2185 66.82 71.4719 66.82C70.7519 66.82 70.1052 66.9667 69.5319 67.26C68.9585 67.54 68.5119 67.94 68.1919 68.46C67.8719 68.9667 67.7119 69.5533 67.7119 70.22C67.7119 70.82 67.8252 71.3333 68.0519 71.76C68.2919 72.1867 68.5985 72.5533 68.9719 72.86C69.3452 73.1533 69.7452 73.4067 70.1719 73.62C70.6119 73.82 71.0319 73.9933 71.4319 74.14C71.9652 74.34 72.4719 74.5733 72.9519 74.84C73.4452 75.0933 73.8452 75.4267 74.1519 75.84C74.4585 76.2533 74.6119 76.8 74.6119 77.48C74.6119 78.2533 74.3519 78.8933 73.8319 79.4C73.3252 79.8933 72.6185 80.14 71.7119 80.14C71.0452 80.14 70.4719 80 69.9919 79.72C69.5119 79.4267 69.1052 79.04 68.7719 78.56C68.4519 78.08 68.1785 77.5467 67.9519 76.96ZM76.9402 68.04H80.6202V81H81.7202V68.04H85.4002V67H76.9402V68.04ZM89.7436 74.32L94.3836 81H95.7436L90.9636 74.32H89.7436ZM87.3636 67V81H88.4636V67H87.3636ZM87.9436 67.98H90.5636C91.2703 67.98 91.8969 68.1 92.4436 68.34C92.9903 68.58 93.4169 68.9267 93.7236 69.38C94.0436 69.8333 94.2036 70.3933 94.2036 71.06C94.2036 71.7267 94.0503 72.2933 93.7436 72.76C93.4369 73.2133 93.0036 73.56 92.4436 73.8C91.8969 74.0267 91.2703 74.14 90.5636 74.14H87.9436V75.12H90.5636C91.4703 75.12 92.2769 74.9667 92.9836 74.66C93.7036 74.34 94.2703 73.8733 94.6836 73.26C95.0969 72.6467 95.3036 71.9133 95.3036 71.06C95.3036 70.1933 95.0969 69.46 94.6836 68.86C94.2703 68.26 93.7036 67.8 92.9836 67.48C92.2769 67.16 91.4703 67 90.5636 67H87.9436V67.98ZM98.9523 76.3H106.132L105.772 75.26H99.3123L98.9523 76.3ZM102.512 69L105.272 75.68L105.372 75.94L107.452 81H108.692L102.512 66.46L96.3323 81H97.5723L99.6723 75.86L99.7923 75.62L102.512 69ZM110.322 74C110.322 72.8 110.575 71.7467 111.082 70.84C111.588 69.9333 112.268 69.2267 113.122 68.72C113.975 68.2 114.928 67.94 115.982 67.94C116.635 67.94 117.235 68.0133 117.782 68.16C118.328 68.3067 118.828 68.5267 119.282 68.82C119.735 69.1 120.135 69.44 120.482 69.84V68.38C119.895 67.86 119.255 67.4733 118.562 67.22C117.868 66.9533 117.008 66.82 115.982 66.82C115.008 66.82 114.102 67 113.262 67.36C112.435 67.7067 111.715 68.2 111.102 68.84C110.488 69.48 110.008 70.24 109.662 71.12C109.315 72 109.142 72.96 109.142 74C109.142 75.04 109.315 76 109.662 76.88C110.008 77.76 110.488 78.52 111.102 79.16C111.715 79.8 112.435 80.3 113.262 80.66C114.102 81.0067 115.008 81.18 115.982 81.18C117.008 81.18 117.868 81.0533 118.562 80.8C119.255 80.5333 119.895 80.14 120.482 79.62V78.14C120.135 78.54 119.735 78.8867 119.282 79.18C118.842 79.4733 118.348 79.6933 117.802 79.84C117.255 79.9867 116.648 80.06 115.982 80.06C114.928 80.06 113.975 79.8 113.122 79.28C112.268 78.76 111.588 78.0467 111.082 77.14C110.575 76.2333 110.322 75.1867 110.322 74ZM123.593 67V81H124.693V67H123.593ZM128.368 74C128.368 72.8267 128.615 71.7867 129.108 70.88C129.615 69.96 130.301 69.24 131.168 68.72C132.048 68.1867 133.048 67.92 134.168 67.92C135.288 67.92 136.281 68.1867 137.148 68.72C138.028 69.24 138.715 69.96 139.208 70.88C139.701 71.7867 139.948 72.8267 139.948 74C139.948 75.16 139.701 76.2 139.208 77.12C138.715 78.04 138.028 78.7667 137.148 79.3C136.281 79.82 135.288 80.08 134.168 80.08C133.048 80.08 132.048 79.82 131.168 79.3C130.301 78.7667 129.615 78.04 129.108 77.12C128.615 76.2 128.368 75.16 128.368 74ZM127.208 74C127.208 75.0267 127.381 75.98 127.728 76.86C128.075 77.7267 128.561 78.4867 129.188 79.14C129.815 79.78 130.548 80.28 131.388 80.64C132.241 81 133.168 81.18 134.168 81.18C135.168 81.18 136.088 81 136.928 80.64C137.781 80.28 138.521 79.78 139.148 79.14C139.775 78.4867 140.261 77.7267 140.608 76.86C140.955 75.98 141.128 75.0267 141.128 74C141.128 72.9733 140.955 72.0267 140.608 71.16C140.261 70.28 139.775 69.52 139.148 68.88C138.521 68.2267 137.781 67.72 136.928 67.36C136.088 67 135.168 66.82 134.168 66.82C133.168 66.82 132.241 67 131.388 67.36C130.548 67.72 129.815 68.2267 129.188 68.88C128.561 69.52 128.075 70.28 127.728 71.16C127.381 72.0267 127.208 72.9733 127.208 74ZM136.688 62.56L135.728 62.02L132.568 65.22L133.148 65.62L136.688 62.56ZM154.332 67V78.72L143.692 66.46V81H144.792V69.32L155.432 81.54V67H154.332ZM172.465 67L168.445 74.24L164.525 67H163.285L167.905 75.26V81H169.005V75.24L173.705 67H172.465ZM188.103 75.06H193.123C193.056 75.74 192.883 76.38 192.603 76.98C192.323 77.58 191.949 78.1133 191.483 78.58C191.029 79.0467 190.489 79.4133 189.863 79.68C189.236 79.9467 188.529 80.08 187.743 80.08C186.636 80.08 185.643 79.82 184.763 79.3C183.896 78.78 183.203 78.0667 182.683 77.16C182.176 76.24 181.923 75.1867 181.923 74C181.923 72.8 182.176 71.7467 182.683 70.84C183.203 69.9333 183.903 69.22 184.783 68.7C185.663 68.18 186.649 67.92 187.743 67.92C188.876 67.92 189.863 68.16 190.703 68.64C191.543 69.12 192.196 69.7467 192.663 70.52L193.463 69.82C193.063 69.1933 192.583 68.66 192.023 68.22C191.463 67.7667 190.823 67.42 190.103 67.18C189.396 66.94 188.609 66.82 187.743 66.82C186.743 66.82 185.816 67 184.963 67.36C184.123 67.7067 183.383 68.2 182.743 68.84C182.116 69.48 181.629 70.24 181.283 71.12C180.936 72 180.763 72.96 180.763 74C180.763 75.04 180.936 76 181.283 76.88C181.629 77.76 182.116 78.52 182.743 79.16C183.383 79.8 184.123 80.3 184.963 80.66C185.816 81.0067 186.743 81.18 187.743 81.18C188.769 81.18 189.689 80.9867 190.503 80.6C191.316 80.2133 192.009 79.6867 192.583 79.02C193.156 78.3533 193.589 77.5933 193.883 76.74C194.176 75.8733 194.323 74.9667 194.323 74.02H188.103V75.06ZM197.573 81H204.513V79.96H197.573V81ZM197.573 68.04H204.513V67H197.573V68.04ZM197.573 73.84H204.113V72.8H197.573V73.84ZM196.993 67V81H198.093V67H196.993ZM207.776 76.96L206.876 77.52C207.103 78.1733 207.423 78.78 207.836 79.34C208.249 79.9 208.763 80.3467 209.376 80.68C209.989 81.0133 210.703 81.18 211.516 81.18C212.089 81.18 212.623 81.0933 213.116 80.92C213.609 80.7333 214.036 80.4733 214.396 80.14C214.769 79.7933 215.056 79.3867 215.256 78.92C215.469 78.4533 215.576 77.9333 215.576 77.36C215.576 76.7467 215.469 76.22 215.256 75.78C215.043 75.3267 214.763 74.94 214.416 74.62C214.083 74.3 213.709 74.0333 213.296 73.82C212.883 73.6067 212.483 73.4267 212.096 73.28C211.349 73.0133 210.723 72.7333 210.216 72.44C209.709 72.1333 209.329 71.7933 209.076 71.42C208.823 71.0467 208.696 70.6 208.696 70.08C208.696 69.4533 208.916 68.9333 209.356 68.52C209.796 68.0933 210.423 67.88 211.236 67.88C211.849 67.88 212.363 68 212.776 68.24C213.189 68.4667 213.529 68.7533 213.796 69.1C214.076 69.4467 214.289 69.8 214.436 70.16L215.396 69.62C215.209 69.1667 214.936 68.7267 214.576 68.3C214.216 67.8733 213.763 67.52 213.216 67.24C212.683 66.96 212.043 66.82 211.296 66.82C210.576 66.82 209.929 66.9667 209.356 67.26C208.783 67.54 208.336 67.94 208.016 68.46C207.696 68.9667 207.536 69.5533 207.536 70.22C207.536 70.82 207.649 71.3333 207.876 71.76C208.116 72.1867 208.423 72.5533 208.796 72.86C209.169 73.1533 209.569 73.4067 209.996 73.62C210.436 73.82 210.856 73.9933 211.256 74.14C211.789 74.34 212.296 74.5733 212.776 74.84C213.269 75.0933 213.669 75.4267 213.976 75.84C214.283 76.2533 214.436 76.8 214.436 77.48C214.436 78.2533 214.176 78.8933 213.656 79.4C213.149 79.8933 212.443 80.14 211.536 80.14C210.869 80.14 210.296 80 209.816 79.72C209.336 79.4267 208.929 79.04 208.596 78.56C208.276 78.08 208.003 77.5467 207.776 76.96ZM216.764 68.04H220.444V81H221.544V68.04H225.224V67H216.764V68.04ZM227.148 67V81H228.248V67H227.148ZM231.923 74C231.923 72.8267 232.169 71.7867 232.663 70.88C233.169 69.96 233.856 69.24 234.723 68.72C235.603 68.1867 236.603 67.92 237.723 67.92C238.843 67.92 239.836 68.1867 240.703 68.72C241.583 69.24 242.269 69.96 242.763 70.88C243.256 71.7867 243.503 72.8267 243.503 74C243.503 75.16 243.256 76.2 242.763 77.12C242.269 78.04 241.583 78.7667 240.703 79.3C239.836 79.82 238.843 80.08 237.723 80.08C236.603 80.08 235.603 79.82 234.723 79.3C233.856 78.7667 233.169 78.04 232.663 77.12C232.169 76.2 231.923 75.16 231.923 74ZM230.763 74C230.763 75.0267 230.936 75.98 231.283 76.86C231.629 77.7267 232.116 78.4867 232.743 79.14C233.369 79.78 234.103 80.28 234.943 80.64C235.796 81 236.723 81.18 237.723 81.18C238.723 81.18 239.643 81 240.483 80.64C241.336 80.28 242.076 79.78 242.703 79.14C243.329 78.4867 243.816 77.7267 244.163 76.86C244.509 75.98 244.683 75.0267 244.683 74C244.683 72.9733 244.509 72.0267 244.163 71.16C243.816 70.28 243.329 69.52 242.703 68.88C242.076 68.2267 241.336 67.72 240.483 67.36C239.643 67 238.723 66.82 237.723 66.82C236.723 66.82 235.796 67 234.943 67.36C234.103 67.72 233.369 68.2267 232.743 68.88C232.116 69.52 231.629 70.28 231.283 71.16C230.936 72.0267 230.763 72.9733 230.763 74ZM240.243 62.56L239.283 62.02L236.123 65.22L236.703 65.62L240.243 62.56ZM257.886 67V78.72L247.246 66.46V81H248.346V69.32L258.986 81.54V67H257.886Z" fill="#1B3B6C"/>
<defs>
<clipPath id="clip0_2_18">
<rect width="62" height="57" fill="white"/>
</clipPath>
</defs>
</svg>
